<svg viewBox="0 0 512.57 512.32" xmlns="http://www.w3.org/2000/svg"><path d="m62.32 140.54a23.41 23.41 0 0 0 -9.27-2.3l-5.28-.39a16.26 16.26 0 0 1 -4.38-.82 3.42 3.42 0 0 1 -2-2.15 3.55 3.55 0 0 1 .4-3.41 6.46 6.46 0 0 1 3.22-2.27q4.56-1.62 9.32 1.91l4.08-6.32a15.48 15.48 0 0 0 -7.25-3.68 16 16 0 0 0 -8.75.77 15.34 15.34 0 0 0 -8.41 6.54 10.83 10.83 0 0 0 -.85 9.6 10.13 10.13 0 0 0 4.91 5.82 23.5 23.5 0 0 0 9 2.31l5 .41c1.52.15 2.63.28 3.33.4a5.41 5.41 0 0 1 2.1.87 3.73 3.73 0 0 1 1.47 1.92 4.16 4.16 0 0 1 -.37 3.8 7.11 7.11 0 0 1 -3.79 2.68q-5.67 2-12-2.35l-4.16 6.28a18.48 18.48 0 0 0 8.68 4.24 18.78 18.78 0 0 0 10-.85 16.23 16.23 0 0 0 8.95-6.89 11.46 11.46 0 0 0 .85-10.18 10.41 10.41 0 0 0 -4.8-5.94z"/><path d="m148.42 31.49-8.23 2.92 8.59 24.21q1.56 4.4 0 7.63a10.36 10.36 0 0 1 -12.78 4.54c-2.21-1-3.83-3-4.87-5.9l-8.59-24.21-8.23 2.93 8.37 23.6q2.8 7.92 9.28 11a19.44 19.44 0 0 0 24.57-8.72q3.1-6.42.3-14.35z"/><path d="m249.9 51.83-7.38-21.61 14.54 9.33 2.69-.92 5.8-16.27 7.38 21.61 8.26-2.82-14.05-41.15-2.69.92-9.6 27.75-24.57-16.08-2.69.92 14.05 41.15z"/><path d="m367.1 88.86-7.64-21.53 14.64 9.16 2.69-.96 5.59-16.33 7.64 21.52 8.24-2.92-14.54-40.97-2.69.95-9.27 27.86-24.75-15.79-2.69.95 14.55 40.98z"/><path d="m483.52 155.39-2.64-7.44-19.58 6.95-3.61-10.19 13.84-4.91-2.49-7.01-13.84 4.91-2.9-8.17 18.84-6.69-2.64-7.44-27.07 9.61 14.28 40.25z"/><path d="m495.54 261.44a13.58 13.58 0 0 0 3.55-6.45 13.1 13.1 0 0 0 -.52-7.47 12.68 12.68 0 0 0 -7.4-8 16.19 16.19 0 0 0 -11.72.14l-15.13 5.37 14.28 40.27 8.24-2.92-5-14.21 6-2.15 15.47 10.51 9.27-3.29zm-5.54-6.15a6.51 6.51 0 0 1 -3.92 3.18l-6.89 2.44-4.09-11.52 6.89-2.45a6.52 6.52 0 0 1 5 0 5.77 5.77 0 0 1 3.12 3.56 6 6 0 0 1 -.11 4.79z"/><path d="m382.59 432.56-9.09 3.22-3.23 19.14-14.51-12.84-9.15 3.25 22.58 19.52 5.61 15.79 8.23-2.92-5.63-15.86z"/><path d="m264 482a13.1 13.1 0 0 0 -.52-7.47 12.65 12.65 0 0 0 -7.4-8 16.19 16.19 0 0 0 -11.72.15l-15.13 5.37 14.29 40.24 8.23-2.92-5-14.21 6-2.14 15.47 10.51 9.27-3.29-17-11.81a13.55 13.55 0 0 0 3.51-6.43zm-9.06.29a6.51 6.51 0 0 1 -3.92 3.18l-6.89 2.45-4.09-11.53 6.89-2.45a6.54 6.54 0 0 1 5 0 5.83 5.83 0 0 1 3.11 3.56 5.94 5.94 0 0 1 -.04 4.81z"/><path d="m57.34 350.34-34.03 12.07 2.64 7.44 12.87-4.56 11.64 32.8 8.24-2.92-11.65-32.81 12.93-4.58z"/><path d="m33.92 268.87a11.48 11.48 0 0 0 .85-10.19 10.41 10.41 0 0 0 -4.85-5.94 23.41 23.41 0 0 0 -9.27-2.3l-5.28-.39a16.18 16.18 0 0 1 -4.38-.82 3.4 3.4 0 0 1 -2-2.15 3.52 3.52 0 0 1 .4-3.41 6.48 6.48 0 0 1 3.21-2.27q4.57-1.62 9.33 1.91l4.07-6.31a15.4 15.4 0 0 0 -7.24-3.68 16.06 16.06 0 0 0 -8.76.77 15.31 15.31 0 0 0 -8.45 6.54 10.85 10.85 0 0 0 -.85 9.61 10.08 10.08 0 0 0 4.95 5.76 23.5 23.5 0 0 0 9 2.31l5 .41c1.51.15 2.63.28 3.33.4a5.37 5.37 0 0 1 2.09.87 3.72 3.72 0 0 1 1.45 2.01 4.16 4.16 0 0 1 -.36 3.8 7.11 7.11 0 0 1 -3.79 2.68q-5.67 2-12-2.35l-4.15 6.29a18.55 18.55 0 0 0 18.78 3.33 16.26 16.26 0 0 0 8.92-6.88z"/><path d="m365.88 191.5h4v263.16h-4z" transform="matrix(.5 -.87 .87 .5 -95.86 480.13)"/><path d="m146.44 438.65a21.68 21.68 0 1 0 10.26 28.89 21.69 21.69 0 0 0 -10.26-28.89z" fill="#f16822"/></svg>